<svg width="45" height="51" viewBox="0 0 45 51" fill="none" xmlns="http://www.w3.org/2000/svg">
<path d="M6.80002 13.6C10.5556 13.6 13.6 10.5555 13.6 6.8C13.6 3.04446 10.5556 0 6.80002 0C3.04448 0 0 3.04446 0 6.8C0 10.5555 3.04448 13.6 6.80002 13.6Z" fill="#353535"/>
<path d="M35.5002 17.8999C32.7002 16.3999 29.5002 15.7 25.7002 15.7H22.1002C21.4002 15.7 20.9001 16.1999 20.9001 16.8999V21.8999C20.9001 22.5999 21.4002 23.1 22.1002 23.1H24.9001C28.2001 23.1 30.8002 24 32.6002 25.7C34.4002 27.5 35.4001 29.9 35.4001 33.1C35.4001 36.3 34.5002 38.7999 32.6002 40.4999C30.8002 42.2999 28.2001 43.1 24.9001 43.1H22.1002C21.4002 43.1 20.9001 42.5999 20.9001 41.8999V24.4999C20.9001 23.7999 20.4002 23.2999 19.7002 23.2999H13.6002C12.9002 23.2999 12.4001 23.7999 12.4001 24.4999V49.7C12.4001 50.4 12.9002 50.8999 13.6002 50.8999H25.7002C29.4002 50.8999 32.7002 50.2 35.5002 48.7C38.3002 47.2 40.4001 45.0999 41.9001 42.4999C43.4001 39.7999 44.1002 36.7999 44.1002 33.2999C44.1002 29.7999 43.4001 26.8 41.9001 24.1C40.3001 21.4 38.2002 19.2999 35.5002 17.8999Z" fill="#353535"/>
</svg>
